<?xml version="1.0" encoding="UTF-8" standalone="no"?>
<svg
   xmlns:dc="http://purl.org/dc/elements/1.1/"
   xmlns:cc="http://creativecommons.org/ns#"
   xmlns:rdf="http://www.w3.org/1999/02/22-rdf-syntax-ns#"
   xmlns:svg="http://www.w3.org/2000/svg"
   xmlns="http://www.w3.org/2000/svg"
   xmlns:sodipodi="http://sodipodi.sourceforge.net/DTD/sodipodi-0.dtd"
   xmlns:inkscape="http://www.inkscape.org/namespaces/inkscape"
   width="64"
   height="64"
   viewBox="0 0 16.933333 16.933334"
   version="1.1"
   id="svg8"
   inkscape:version="1.0.2 (e86c8708, 2021-01-15)"
   sodipodi:docname="portfolio.svg">
  <defs
     id="defs2">
    <inkscape:path-effect
       effect="fillet_chamfer"
       id="path-effect170"
       is_visible="true"
       lpeversion="1"
       satellites_param="F,0,0,1,0,0.2,0,1 @ F,0,0,1,0,0.2,0,1 @ F,0,0,1,0,0.2,0,1 @ F,0,0,1,0,0.2,0,1"
       unit="px"
       method="arc"
       mode="F"
       radius="0.2"
       chamfer_steps="1"
       flexible="false"
       use_knot_distance="true"
       apply_no_radius="true"
       apply_with_radius="true"
       only_selected="false"
       hide_knots="false" />
    <inkscape:path-effect
       effect="fillet_chamfer"
       id="path-effect121"
       is_visible="true"
       lpeversion="1"
       satellites_param="F,0,0,1,0,0.2,0,1 @ F,0,0,1,0,0.2,0,1 @ F,0,0,1,0,0.2,0,1 @ F,0,0,1,0,0.2,0,1"
       unit="px"
       method="arc"
       mode="F"
       radius="0.2"
       chamfer_steps="1"
       flexible="false"
       use_knot_distance="true"
       apply_no_radius="true"
       apply_with_radius="true"
       only_selected="false"
       hide_knots="false" />
    <inkscape:path-effect
       effect="fillet_chamfer"
       id="path-effect98"
       is_visible="true"
       lpeversion="1"
       satellites_param="F,0,0,1,0,0.2,0,1 @ F,0,0,1,0,0.2,0,1 @ F,0,0,1,0,0.2,0,1 @ F,0,0,1,0,0.2,0,1"
       unit="px"
       method="arc"
       mode="F"
       radius="0.2"
       chamfer_steps="1"
       flexible="false"
       use_knot_distance="true"
       apply_no_radius="true"
       apply_with_radius="true"
       only_selected="false"
       hide_knots="false" />
    <inkscape:path-effect
       effect="fillet_chamfer"
       id="path-effect44"
       is_visible="true"
       lpeversion="1"
       satellites_param="F,0,0,1,0,1,0,1 @ F,0,0,1,0,1,0,1 @ F,0,0,1,0,1,0,1 @ F,0,0,1,0,1,0,1"
       unit="px"
       method="arc"
       mode="F"
       radius="1"
       chamfer_steps="1"
       flexible="false"
       use_knot_distance="true"
       apply_no_radius="true"
       apply_with_radius="true"
       only_selected="false"
       hide_knots="false" />
    <inkscape:path-effect
       effect="fillet_chamfer"
       id="path-effect85"
       is_visible="true"
       lpeversion="1"
       satellites_param="F,0,0,1,0,0.6,0,1 @ F,0,0,1,0,0.6,0,1 @ F,0,0,1,0,0.6,0,1 @ F,0,0,1,0,0.6,0,1"
       unit="px"
       method="arc"
       mode="F"
       radius="0.6"
       chamfer_steps="1"
       flexible="false"
       use_knot_distance="true"
       apply_no_radius="true"
       apply_with_radius="true"
       only_selected="false"
       hide_knots="false" />
    <inkscape:path-effect
       effect="fillet_chamfer"
       id="path-effect61"
       is_visible="true"
       lpeversion="1"
       satellites_param="F,0,0,1,0,1,0,1 @ F,0,0,1,0,1,0,1 @ F,0,0,1,0,1,0,1 @ F,0,0,1,0,1,0,1"
       unit="px"
       method="arc"
       mode="F"
       radius="1"
       chamfer_steps="1"
       flexible="false"
       use_knot_distance="true"
       apply_no_radius="true"
       apply_with_radius="true"
       only_selected="false"
       hide_knots="false" />
    <inkscape:path-effect
       effect="fillet_chamfer"
       id="path-effect38"
       is_visible="true"
       lpeversion="1"
       satellites_param="F,0,0,1,0,1,0,1 @ F,0,0,1,0,1,0,1 @ F,0,0,1,0,1,0,1 @ F,0,0,1,0,1,0,1"
       unit="px"
       method="arc"
       mode="F"
       radius="1"
       chamfer_steps="1"
       flexible="false"
       use_knot_distance="true"
       apply_no_radius="true"
       apply_with_radius="true"
       only_selected="false"
       hide_knots="false" />
  </defs>
  <sodipodi:namedview
     id="base"
     pagecolor="#ffffff"
     bordercolor="#666666"
     borderopacity="1.0"
     inkscape:pageopacity="0.0"
     inkscape:pageshadow="2"
     inkscape:zoom="4.5465004"
     inkscape:cx="40.14248"
     inkscape:cy="54.536693"
     inkscape:document-units="px"
     inkscape:current-layer="layer1"
     inkscape:document-rotation="0"
     showgrid="true"
     units="px"
     inkscape:window-width="1440"
     inkscape:window-height="773"
     inkscape:window-x="68"
     inkscape:window-y="119"
     inkscape:window-maximized="0"
     inkscape:snap-global="false">
    <inkscape:grid
       type="xygrid"
       id="grid882"
       spacingx="2.1166667"
       spacingy="2.1166667"
       empspacing="4" />
  </sodipodi:namedview>
  <metadata
     id="metadata5">
    <rdf:RDF>
      <cc:Work
         rdf:about="">
        <dc:format>image/svg+xml</dc:format>
        <dc:type
           rdf:resource="http://purl.org/dc/dcmitype/StillImage" />
        <dc:title />
      </cc:Work>
    </rdf:RDF>
  </metadata>
  <g
     inkscape:label="Layer 1"
     inkscape:groupmode="layer"
     id="layer1">
    <path
       id="rect36-3"
       style="fill:#800080;stroke-width:0.264583"
       d="m 2.0880309,9.024982 v 5.109249 c 3.36e-5,0.552237 0.447702,0.999906 0.999939,0.999939 l 5.3995157,0.02089 c 1.7744144,0.02089 5.5295334,-0.02089 5.5295334,-0.02089 0.552237,-3.3e-5 0.999906,-0.447702 0.999939,-0.999939 V 9.1283349 C 14.86653,9.5159767 14.488014,9.7721585 14.065595,9.7722233 H 9.7552873 l 0.033409,0.4894727 c -1.2e-5,0.209297 -0.1555103,0.378962 -0.3473289,0.378974 H 7.9308914 C 7.739072,10.640658 7.5835744,10.470993 7.5835624,10.261696 L 7.5501537,9.7722233 H 3.0729836 C 2.6098281,9.7721072 2.2050974,9.4650553 2.0880309,9.024982 Z"
       sodipodi:nodetypes="cccccccccccccccc" />
    <path
       id="rect36-0"
       style="fill:#800080;stroke-width:0.264583"
       d="M 7.0000568,1.1172035 C 6.4530739,1.1245869 6.0135374,1.5701098 6.0135539,2.1171425 V 3.2076398 H 2.9878986 c -0.5522371,3.37e-5 -0.9999053,0.4477019 -0.999939,0.999939 V 7.4466575 C 2.1401589,7.9716479 2.5250832,8.3189233 2.9548257,8.3189557 L 7.516745,8.3523644 7.5501537,7.7677877 C 7.550165,7.5369116 7.7033069,7.3497529 7.8922205,7.3497391 h 1.4875914 c 0.1889135,1.4e-5 0.3420553,0.1871725 0.3420667,0.4180486 l -0.033409,0.5845767 4.4279494,-0.033409 c 0.31029,-8.39e-5 0.604147,-0.1822033 0.800468,-0.4960937 V 4.2075788 C 14.916853,3.6553417 14.469185,3.2076735 13.916948,3.2076398 H 10.824113 V 2.1171425 C 10.824079,1.5649053 10.376411,1.1172371 9.8241738,1.1172035 H 7.0134929 c -0.00448,-3.01e-5 -0.00896,-3.01e-5 -0.013436,0 z m 0.6506797,1.1098641 c 0.00109,-3.4e-6 0.00217,-3.4e-6 0.00326,0 h 1.6106822 c 0.2616804,-1.915e-4 0.47393,0.1937618 0.4739458,0.4330911 V 3.1813755 H 7.1808694 V 2.6601587 C 7.1808774,2.42228 7.3906501,2.228926 7.6507365,2.2270676 Z"
       sodipodi:nodetypes="cccccccccccccccccccccccccccccc" />
    <path
       style="fill:#800080;stroke-width:0.0815363"
       id="rect96-4-7"
       width="0.84451222"
       height="1.8542999"
       x="8.2448502"
       y="8.122962"
       inkscape:path-effect="#path-effect170"
       sodipodi:type="rect"
       d="m 8.4448502,8.122962 h 0.4445122 a 0.2,0.2 45 0 1 0.2,0.2 v 1.4542999 a 0.2,0.2 135 0 1 -0.2,0.2 H 8.4448502 a 0.2,0.2 45 0 1 -0.2,-0.2 V 8.322962 a 0.2,0.2 135 0 1 0.2,-0.2 z" />
  </g>
</svg>
