<?xml version="1.0" encoding="UTF-8" standalone="no"?>
<svg
   xmlns:dc="http://purl.org/dc/elements/1.1/"
   xmlns:cc="http://creativecommons.org/ns#"
   xmlns:rdf="http://www.w3.org/1999/02/22-rdf-syntax-ns#"
   xmlns:svg="http://www.w3.org/2000/svg"
   xmlns="http://www.w3.org/2000/svg"
   xmlns:sodipodi="http://sodipodi.sourceforge.net/DTD/sodipodi-0.dtd"
   xmlns:inkscape="http://www.inkscape.org/namespaces/inkscape"
   width="64"
   height="64"
   viewBox="0 0 16.933333 16.933334"
   version="1.1"
   id="svg8"
   inkscape:version="1.0.2 (e86c8708, 2021-01-15)"
   sodipodi:docname="portfolio.svg">
  <defs
     id="defs2">
    <inkscape:path-effect
       effect="fillet_chamfer"
       id="path-effect170"
       is_visible="true"
       lpeversion="1"
       satellites_param="F,0,0,1,0,0.2,0,1 @ F,0,0,1,0,0.2,0,1 @ F,0,0,1,0,0.2,0,1 @ F,0,0,1,0,0.2,0,1"
       unit="px"
       method="arc"
       mode="F"
       radius="0.2"
       chamfer_steps="1"
       flexible="false"
       use_knot_distance="true"
       apply_no_radius="true"
       apply_with_radius="true"
       only_selected="false"
       hide_knots="false" />
    <inkscape:path-effect
       effect="fillet_chamfer"
       id="path-effect121"
       is_visible="true"
       lpeversion="1"
       satellites_param="F,0,0,1,0,0.2,0,1 @ F,0,0,1,0,0.2,0,1 @ F,0,0,1,0,0.2,0,1 @ F,0,0,1,0,0.2,0,1"
       unit="px"
       method="arc"
       mode="F"
       radius="0.2"
       chamfer_steps="1"
       flexible="false"
       use_knot_distance="true"
       apply_no_radius="true"
       apply_with_radius="true"
       only_selected="false"
       hide_knots="false" />
    <inkscape:path-effect
       effect="fillet_chamfer"
       id="path-effect98"
       is_visible="true"
       lpeversion="1"
       satellites_param="F,0,0,1,0,0.2,0,1 @ F,0,0,1,0,0.2,0,1 @ F,0,0,1,0,0.2,0,1 @ F,0,0,1,0,0.2,0,1"
       unit="px"
       method="arc"
       mode="F"
       radius="0.2"
       chamfer_steps="1"
       flexible="false"
       use_knot_distance="true"
       apply_no_radius="true"
       apply_with_radius="true"
       only_selected="false"
       hide_knots="false" />
    <inkscape:path-effect
       effect="fillet_chamfer"
       id="path-effect44"
       is_visible="true"
       lpeversion="1"
       satellites_param="F,0,0,1,0,1,0,1 @ F,0,0,1,0,1,0,1 @ F,0,0,1,0,1,0,1 @ F,0,0,1,0,1,0,1"
       unit="px"
       method="arc"
       mode="F"
       radius="1"
       chamfer_steps="1"
       flexible="false"
       use_knot_distance="true"
       apply_no_radius="true"
       apply_with_radius="true"
       only_selected="false"
       hide_knots="false" />
    <inkscape:path-effect
       effect="fillet_chamfer"
       id="path-effect85"
       is_visible="true"
       lpeversion="1"
       satellites_param="F,0,0,1,0,0.6,0,1 @ F,0,0,1,0,0.6,0,1 @ F,0,0,1,0,0.6,0,1 @ F,0,0,1,0,0.6,0,1"
       unit="px"
       method="arc"
       mode="F"
       radius="0.6"
       chamfer_steps="1"
       flexible="false"
       use_knot_distance="true"
       apply_no_radius="true"
       apply_with_radius="true"
       only_selected="false"
       hide_knots="false" />
    <inkscape:path-effect
       effect="fillet_chamfer"
       id="path-effect61"
       is_visible="true"
       lpeversion="1"
       satellites_param="F,0,0,1,0,1,0,1 @ F,0,0,1,0,1,0,1 @ F,0,0,1,0,1,0,1 @ F,0,0,1,0,1,0,1"
       unit="px"
       method="arc"
       mode="F"
       radius="1"
       chamfer_steps="1"
       flexible="false"
       use_knot_distance="true"
       apply_no_radius="true"
       apply_with_radius="true"
       only_selected="false"
       hide_knots="false" />
    <inkscape:path-effect
       effect="fillet_chamfer"
       id="path-effect38"
       is_visible="true"
       lpeversion="1"
       satellites_param="F,0,0,1,0,1,0,1 @ F,0,0,1,0,1,0,1 @ F,0,0,1,0,1,0,1 @ F,0,0,1,0,1,0,1"
       unit="px"
       method="arc"
       mode="F"
       radius="1"
       chamfer_steps="1"
       flexible="false"
       use_knot_distance="true"
       apply_no_radius="true"
       apply_with_radius="true"
       only_selected="false"
       hide_knots="false" />
  </defs>
  <sodipodi:namedview
     id="base"
     pagecolor="#ffffff"
     bordercolor="#666666"
     borderopacity="1.0"
     inkscape:pageopacity="0.0"
     inkscape:pageshadow="2"
     inkscape:zoom="7.9195959"
     inkscape:cx="33.484958"
     inkscape:cy="30.196725"
     inkscape:document-units="px"
     inkscape:current-layer="layer1"
     inkscape:document-rotation="0"
     showgrid="true"
     units="px"
     inkscape:window-width="1440"
     inkscape:window-height="773"
     inkscape:window-x="0"
     inkscape:window-y="25"
     inkscape:window-maximized="1"
     inkscape:snap-global="false">
    <inkscape:grid
       type="xygrid"
       id="grid882"
       spacingx="2.1166667"
       spacingy="2.1166667"
       empspacing="4" />
  </sodipodi:namedview>
  <metadata
     id="metadata5">
    <rdf:RDF>
      <cc:Work
         rdf:about="">
        <dc:format>image/svg+xml</dc:format>
        <dc:type
           rdf:resource="http://purl.org/dc/dcmitype/StillImage" />
        <dc:title />
      </cc:Work>
    </rdf:RDF>
  </metadata>
  <g
     inkscape:label="Layer 1"
     inkscape:groupmode="layer"
     id="layer1">
    <path
       id="rect36-3"
       style="fill:#800080;stroke-width:0.264583"
       d="m 2.0546222,8.1897647 v 5.1092493 c 3.36e-5,0.552237 0.447702,0.999906 0.999939,0.999939 l 5.3995157,0.02089 c 1.7744141,0.02089 5.5295331,-0.02089 5.5295331,-0.02089 0.552237,-3.3e-5 0.999906,-0.447702 0.999939,-0.999939 V 8.2931176 C 14.833121,8.6807594 14.454605,8.9369412 14.032186,8.937006 H 9.1539308 v 0.4345988 c -6.9e-6,0.1104474 -0.089541,0.1999811 -0.1999879,0.1999877 H 8.0842286 C 7.9737812,9.5715859 7.8842475,9.4820522 7.8842406,9.3716048 V 8.937006 H 3.0395749 C 2.5764194,8.9368899 2.1716887,8.629838 2.0546222,8.1897647 Z"
       sodipodi:nodetypes="cccccccccccccccc" />
    <path
       id="rect36-0"
       style="fill:#800080;stroke-width:0.264583"
       d="M 7.0000568,1.6206565 A 1,1 0 0 0 6.0135539,2.6205955 V 3.2076398 H 2.9878986 a 1,1 0 0 0 -0.999939,0.999939 V 7.4466575 A 1.0339425,1.3506494 0 0 0 2.9548257,8.3189557 H 7.8842406 V 7.783588 A 0.2,0.2 0 0 1 8.0842286,7.5836 H 8.9539429 A 0.2,0.2 0 0 1 9.1539308,7.783588 V 8.3189557 H 14.116419 A 1.0339425,1.3506494 0 0 0 14.916887,7.822862 V 4.2075788 A 1,1 0 0 0 13.916948,3.2076398 H 10.824113 V 2.6205955 A 1,1 0 0 0 9.8241738,1.6206565 H 7.0134929 a 1,1 0 0 0 -0.013436,0 z m 0.4609539,0.7684286 a 0.60000003,0.60000003 0 0 1 0.00413,0 H 9.5058438 A 0.60000003,0.60000003 0 0 1 10.106324,2.9890484 V 3.2076398 H 6.8656982 V 2.9890484 A 0.60000003,0.60000003 0 0 1 7.4610107,2.3890851 Z" />
    <path
       style="fill:#800080;stroke-width:0.104395"
       id="rect96-4-7"
       width="0.53453898"
       height="1.0356693"
       x="8.2519464"
       y="8.034791"
       inkscape:path-effect="#path-effect170"
       sodipodi:type="rect"
       d="m 8.4519464,8.034791 h 0.134539 a 0.2,0.2 45 0 1 0.2,0.2 v 0.6356693 a 0.2,0.2 135 0 1 -0.2,0.2 h -0.134539 a 0.2,0.2 45 0 1 -0.2,-0.2 V 8.234791 a 0.2,0.2 135 0 1 0.2,-0.2 z" />
  </g>
</svg>
