<?xml version="1.0" encoding="UTF-8" standalone="no"?>
<svg
   xmlns:dc="http://purl.org/dc/elements/1.1/"
   xmlns:cc="http://creativecommons.org/ns#"
   xmlns:rdf="http://www.w3.org/1999/02/22-rdf-syntax-ns#"
   xmlns:svg="http://www.w3.org/2000/svg"
   xmlns="http://www.w3.org/2000/svg"
   xmlns:sodipodi="http://sodipodi.sourceforge.net/DTD/sodipodi-0.dtd"
   xmlns:inkscape="http://www.inkscape.org/namespaces/inkscape"
   width="64"
   height="64"
   viewBox="0 0 16.933333 16.933334"
   version="1.1"
   id="svg8"
   inkscape:version="1.0.2 (e86c8708, 2021-01-15)"
   sodipodi:docname="skull.svg">
  <defs
     id="defs2" />
  <sodipodi:namedview
     id="base"
     pagecolor="#ffffff"
     bordercolor="#666666"
     borderopacity="1.0"
     inkscape:pageopacity="0.0"
     inkscape:pageshadow="2"
     inkscape:zoom="7.9195959"
     inkscape:cx="56.276524"
     inkscape:cy="29.312841"
     inkscape:document-units="px"
     inkscape:current-layer="layer1"
     inkscape:document-rotation="0"
     showgrid="true"
     units="px"
     inkscape:window-width="1440"
     inkscape:window-height="776"
     inkscape:window-x="0"
     inkscape:window-y="25"
     inkscape:window-maximized="0"
     inkscape:snap-global="false">
    <inkscape:grid
       type="xygrid"
       id="grid882"
       spacingx="2.1166667"
       spacingy="2.1166667"
       empspacing="4" />
  </sodipodi:namedview>
  <metadata
     id="metadata5">
    <rdf:RDF>
      <cc:Work
         rdf:about="">
        <dc:format>image/svg+xml</dc:format>
        <dc:type
           rdf:resource="http://purl.org/dc/dcmitype/StillImage" />
        <dc:title />
      </cc:Work>
    </rdf:RDF>
  </metadata>
  <g
     inkscape:label="Layer 1"
     inkscape:groupmode="layer"
     id="layer1">
    <path
       id="path10"
       style="fill:#800000;stroke:none;stroke-width:0.291467px;stroke-linecap:butt;stroke-linejoin:miter;stroke-opacity:1"
       d="M 6.9190976,1.289508 C 5.1500232,1.6780176 2.6954854,3.0738971 2.299578,4.3030966 1.7406114,6.7397364 2.5064862,8.3934304 2.877429,9.7359924 2.3540076,10.138199 3.4537036,12.823117 5.4950194,11.365429 l 0.8503574,2.781998 1.1405188,0.03447 0.2234068,-1.323722 0.2414208,2.020366 1.6479579,-0.04883 0.3794504,-1.85216 0.2402705,1.346043 0.856042,-0.09031 0.664536,-2.618133 c 1.027058,0.873741 2.816069,-1.060472 1.999,-2.2084168 C 14.712249,8.2543108 14.963823,7.5041201 14.77735,5.5112885 14.354195,3.5064503 12.82586,2.0004586 11.131093,1.257156 Z m 4.6747164,5.0253626 c 1.13477,0.1630198 1.564677,1.0686807 1.408834,1.65777 C 12.84686,8.561988 11.96329,8.8454306 11.029297,8.6056764 10.095181,8.3659792 9.4644268,7.6937773 9.6206604,7.104476 9.7361024,6.669525 10.459044,6.1518508 11.593814,6.3148706 Z M 7.8550882,6.7476514 C 8.0634501,7.3210755 7.6051595,8.5665852 6.6255661,8.9112126 5.6460367,9.2558932 4.5162196,8.5691925 4.3083047,7.9956373 4.1004539,7.422278 4.4249888,6.4110045 5.6918932,6.1487122 6.9587977,5.8864198 7.7206305,6.3773767 7.8550882,6.7476514 Z M 8.857445,8.893564 c 0.1187546,0.00881 0.5716897,0.3289268 0.6904445,0.4493515 L 9.8247018,10.946152 C 9.1859754,10.558653 8.6087637,10.65677 8.0602322,10.979742 L 8.2004089,9.4428056 C 8.3191636,9.2537181 8.7386895,8.8847507 8.857445,8.893564 Z"
       sodipodi:nodetypes="ccccccccccccccccccccccccccccccccc" />
  </g>
</svg>
