<?xml version="1.0" encoding="UTF-8" standalone="no"?>
<svg
   xmlns:dc="http://purl.org/dc/elements/1.1/"
   xmlns:cc="http://creativecommons.org/ns#"
   xmlns:rdf="http://www.w3.org/1999/02/22-rdf-syntax-ns#"
   xmlns:svg="http://www.w3.org/2000/svg"
   xmlns="http://www.w3.org/2000/svg"
   xmlns:sodipodi="http://sodipodi.sourceforge.net/DTD/sodipodi-0.dtd"
   xmlns:inkscape="http://www.inkscape.org/namespaces/inkscape"
   width="64"
   height="64"
   viewBox="0 0 16.933333 16.933334"
   version="1.1"
   id="svg8"
   inkscape:version="1.0.2 (e86c8708, 2021-01-15)"
   sodipodi:docname="portfolio.svg">
  <defs
     id="defs2">
    <inkscape:path-effect
       effect="fillet_chamfer"
       id="path-effect170"
       is_visible="true"
       lpeversion="1"
       satellites_param="F,0,0,1,0,0.2,0,1 @ F,0,0,1,0,0.2,0,1 @ F,0,0,1,0,0.2,0,1 @ F,0,0,1,0,0.2,0,1"
       unit="px"
       method="arc"
       mode="F"
       radius="0.2"
       chamfer_steps="1"
       flexible="false"
       use_knot_distance="true"
       apply_no_radius="true"
       apply_with_radius="true"
       only_selected="false"
       hide_knots="false" />
    <inkscape:path-effect
       effect="fillet_chamfer"
       id="path-effect121"
       is_visible="true"
       lpeversion="1"
       satellites_param="F,0,0,1,0,0.2,0,1 @ F,0,0,1,0,0.2,0,1 @ F,0,0,1,0,0.2,0,1 @ F,0,0,1,0,0.2,0,1"
       unit="px"
       method="arc"
       mode="F"
       radius="0.2"
       chamfer_steps="1"
       flexible="false"
       use_knot_distance="true"
       apply_no_radius="true"
       apply_with_radius="true"
       only_selected="false"
       hide_knots="false" />
    <inkscape:path-effect
       effect="fillet_chamfer"
       id="path-effect98"
       is_visible="true"
       lpeversion="1"
       satellites_param="F,0,0,1,0,0.2,0,1 @ F,0,0,1,0,0.2,0,1 @ F,0,0,1,0,0.2,0,1 @ F,0,0,1,0,0.2,0,1"
       unit="px"
       method="arc"
       mode="F"
       radius="0.2"
       chamfer_steps="1"
       flexible="false"
       use_knot_distance="true"
       apply_no_radius="true"
       apply_with_radius="true"
       only_selected="false"
       hide_knots="false" />
    <inkscape:path-effect
       effect="fillet_chamfer"
       id="path-effect44"
       is_visible="true"
       lpeversion="1"
       satellites_param="F,0,0,1,0,1,0,1 @ F,0,0,1,0,1,0,1 @ F,0,0,1,0,1,0,1 @ F,0,0,1,0,1,0,1"
       unit="px"
       method="arc"
       mode="F"
       radius="1"
       chamfer_steps="1"
       flexible="false"
       use_knot_distance="true"
       apply_no_radius="true"
       apply_with_radius="true"
       only_selected="false"
       hide_knots="false" />
    <inkscape:path-effect
       effect="fillet_chamfer"
       id="path-effect85"
       is_visible="true"
       lpeversion="1"
       satellites_param="F,0,0,1,0,0.6,0,1 @ F,0,0,1,0,0.6,0,1 @ F,0,0,1,0,0.6,0,1 @ F,0,0,1,0,0.6,0,1"
       unit="px"
       method="arc"
       mode="F"
       radius="0.6"
       chamfer_steps="1"
       flexible="false"
       use_knot_distance="true"
       apply_no_radius="true"
       apply_with_radius="true"
       only_selected="false"
       hide_knots="false" />
    <inkscape:path-effect
       effect="fillet_chamfer"
       id="path-effect61"
       is_visible="true"
       lpeversion="1"
       satellites_param="F,0,0,1,0,1,0,1 @ F,0,0,1,0,1,0,1 @ F,0,0,1,0,1,0,1 @ F,0,0,1,0,1,0,1"
       unit="px"
       method="arc"
       mode="F"
       radius="1"
       chamfer_steps="1"
       flexible="false"
       use_knot_distance="true"
       apply_no_radius="true"
       apply_with_radius="true"
       only_selected="false"
       hide_knots="false" />
    <inkscape:path-effect
       effect="fillet_chamfer"
       id="path-effect38"
       is_visible="true"
       lpeversion="1"
       satellites_param="F,0,0,1,0,1,0,1 @ F,0,0,1,0,1,0,1 @ F,0,0,1,0,1,0,1 @ F,0,0,1,0,1,0,1"
       unit="px"
       method="arc"
       mode="F"
       radius="1"
       chamfer_steps="1"
       flexible="false"
       use_knot_distance="true"
       apply_no_radius="true"
       apply_with_radius="true"
       only_selected="false"
       hide_knots="false" />
  </defs>
  <sodipodi:namedview
     id="base"
     pagecolor="#ffffff"
     bordercolor="#666666"
     borderopacity="1.0"
     inkscape:pageopacity="0.0"
     inkscape:pageshadow="2"
     inkscape:zoom="4.5465004"
     inkscape:cx="40.14248"
     inkscape:cy="54.536693"
     inkscape:document-units="px"
     inkscape:current-layer="layer1"
     inkscape:document-rotation="0"
     showgrid="true"
     units="px"
     inkscape:window-width="1440"
     inkscape:window-height="773"
     inkscape:window-x="153"
     inkscape:window-y="141"
     inkscape:window-maximized="0"
     inkscape:snap-global="false">
    <inkscape:grid
       type="xygrid"
       id="grid882"
       spacingx="2.1166667"
       spacingy="2.1166667"
       empspacing="4" />
  </sodipodi:namedview>
  <metadata
     id="metadata5">
    <rdf:RDF>
      <cc:Work
         rdf:about="">
        <dc:format>image/svg+xml</dc:format>
        <dc:type
           rdf:resource="http://purl.org/dc/dcmitype/StillImage" />
        <dc:title />
      </cc:Work>
    </rdf:RDF>
  </metadata>
  <g
     inkscape:label="Layer 1"
     inkscape:groupmode="layer"
     id="layer1">
    <path
       id="rect36-3"
       style="fill:#800080;stroke-width:0.264583"
       d="m 2.0880309,9.024982 v 5.109249 c 3.36e-5,0.552237 0.447702,0.999906 0.999939,0.999939 l 5.3995157,0.02089 c 1.7744144,0.02089 5.5295334,-0.02089 5.5295334,-0.02089 0.552237,-3.3e-5 0.999906,-0.447702 0.999939,-0.999939 V 9.1283349 C 14.86653,9.5159767 14.488014,9.7721585 14.065595,9.7722233 l -3.856907,-0.058195 -0.07082,0.8756656 c -1.6e-5,0.349547 -0.2121091,0.632905 -0.4737411,0.632925 H 7.6039033 c -0.2616331,-2e-5 -0.4737248,-0.283378 -0.4737412,-0.632925 L 7.0845941,9.7722233 H 3.0729836 C 2.6098281,9.7721072 2.2050974,9.4650553 2.0880309,9.024982 Z"
       sodipodi:nodetypes="cccccccccccccccc" />
    <path
       id="rect36-0"
       style="fill:#800080;stroke-width:0.264583"
       d="M 6.8075052,0.24427934 C 6.1414157,0.2547459 5.6061692,0.8863102 5.6061893,1.6617728 v 1.545867 H 2.9878986 c -0.5522371,3.37e-5 -0.9999053,0.4477019 -0.999939,0.999939 V 7.4466575 C 2.1401589,7.9716479 2.5250832,8.3189233 2.9548257,8.3189557 L 6.9929905,8.3523644 7.040506,7.3945541 C 7.0405221,7.0162709 7.2583283,6.7096173 7.5270108,6.7095947 h 2.1157278 c 0.2686824,2.3e-5 0.4864884,0.3066762 0.4865044,0.6849594 l 0.06887,0.9578103 3.918302,-0.033409 c 0.31029,-8.39e-5 0.604147,-0.1822033 0.800468,-0.4960937 V 4.2075788 c -3e-5,-0.5522371 -0.447698,-0.9999053 -0.999935,-0.999939 H 11.464257 V 1.6617728 C 11.464216,0.87893241 10.919067,0.24432697 10.246579,0.24427934 H 6.823867 c -0.00546,-4.267e-5 -0.010911,-4.267e-5 -0.016362,0 z M 7.5998717,1.5266257 c 0.00133,-7.2e-6 0.00264,-7.2e-6 0.00397,0 H 9.5652531 C 9.8839149,1.5262255 10.142382,2.0922732 10.142402,2.4315416 V 3.1704081 H 7.0276901 V 2.4315416 c 9.7e-6,-0.4970323 0.2554609,-0.901033 0.5721816,-0.9049159 z"
       sodipodi:nodetypes="cccccccccccccccccccccccccccccc" />
    <path
       style="fill:#800080;stroke-width:0.0815363"
       id="rect96-4-7"
       width="1.7174362"
       height="2.436249"
       x="7.7792907"
       y="7.7155976"
       inkscape:path-effect="#path-effect170"
       sodipodi:type="rect"
       d="m 7.9792907,7.7155976 h 1.3174362 a 0.2,0.2 45 0 1 0.2,0.2 v 2.036249 a 0.2,0.2 135 0 1 -0.2,0.2000004 H 7.9792907 a 0.2,0.2 45 0 1 -0.2,-0.2000004 v -2.036249 a 0.2,0.2 135 0 1 0.2,-0.2 z" />
  </g>
</svg>
