<svg xmlns="http://www.w3.org/2000/svg" width="64" height="64" viewBox="0 0 16.93 16.93"><path d="M16.9 10.84c-.32 1.36-2.66 1.02-3.52 2.1-.83 1.07.03 3.31-1.17 3.89-1.25.59-2.44-1.5-3.81-1.5-1.34 0-2.51 2.08-3.7 1.48-1.23-.62-.39-2.88-1.24-3.98-.83-1.07-3.15-.7-3.43-2.04-.3-1.36 1.96-2.1 2.27-3.46C2.6 6 .87 4.37 1.72 3.31c.86-1.08 2.83.27 4.06-.34C6.98 2.38 7.16-.02 8.5 0c1.37.02 1.57 2.43 2.8 3.04 1.2.6 3.14-.77 3.96.3.84 1.11-.88 2.77-.58 4.14.3 1.33 2.55 2.03 2.23 3.36z" fill="purple" fill-rule="evenodd"/></svg>