<?xml version="1.0" encoding="UTF-8" standalone="no"?>
<svg
   xmlns:dc="http://purl.org/dc/elements/1.1/"
   xmlns:cc="http://creativecommons.org/ns#"
   xmlns:rdf="http://www.w3.org/1999/02/22-rdf-syntax-ns#"
   xmlns:svg="http://www.w3.org/2000/svg"
   xmlns="http://www.w3.org/2000/svg"
   xmlns:sodipodi="http://sodipodi.sourceforge.net/DTD/sodipodi-0.dtd"
   xmlns:inkscape="http://www.inkscape.org/namespaces/inkscape"
   width="64"
   height="64"
   viewBox="0 0 16.933333 16.933334"
   version="1.1"
   id="svg8"
   inkscape:version="1.0.2 (e86c8708, 2021-01-15)"
   sodipodi:docname="star2.svg">
  <defs
     id="defs2" />
  <sodipodi:namedview
     id="base"
     pagecolor="#ffffff"
     bordercolor="#666666"
     borderopacity="1.0"
     inkscape:pageopacity="0.0"
     inkscape:pageshadow="2"
     inkscape:zoom="5.995652"
     inkscape:cx="45.655259"
     inkscape:cy="27.499297"
     inkscape:document-units="px"
     inkscape:current-layer="layer1"
     inkscape:document-rotation="0"
     showgrid="false"
     units="px"
     inkscape:window-width="1252"
     inkscape:window-height="943"
     inkscape:window-x="1224"
     inkscape:window-y="164"
     inkscape:window-maximized="0" />
  <metadata
     id="metadata5">
    <rdf:RDF>
      <cc:Work
         rdf:about="">
        <dc:format>image/svg+xml</dc:format>
        <dc:type
           rdf:resource="http://purl.org/dc/dcmitype/StillImage" />
        <dc:title></dc:title>
      </cc:Work>
    </rdf:RDF>
  </metadata>
  <g
     inkscape:label="Layer 1"
     inkscape:groupmode="layer"
     id="layer1">
    <path
       sodipodi:type="star"
       style="fill:#ff00ff;fill-rule:evenodd;stroke-width:0.264583"
       id="path10"
       sodipodi:sides="7"
       sodipodi:cx="8.7817106"
       sodipodi:cy="8.252161"
       sodipodi:r1="8.6524744"
       sodipodi:r2="6.3418465"
       sodipodi:arg1="0.22689508"
       sodipodi:arg2="0.6847934"
       inkscape:flatsided="false"
       inkscape:rounded="0.33562015"
       inkscape:randomized="0"
       d="m 17.212418,10.198563 c -0.320146,1.331303 -2.662247,0.996505 -3.518632,2.064898 -0.833794,1.040211 0.03037,3.229195 -1.177374,3.793655 C 11.27595,16.636868 10.07743,14.596998 8.7081787,14.593581 7.3750473,14.590255 6.2024254,16.630692 5.0080996,16.038378 3.7814152,15.430015 4.6289853,13.221136 3.7779423,12.148482 2.949349,11.104124 0.62295299,11.459523 0.34139316,10.15646 0.05220484,8.8180916 2.3076278,8.1035347 2.6156455,6.769374 2.915538,5.4704071 1.1871915,3.8731452 2.0304179,2.8405661 2.8964904,1.7800105 4.8613868,3.0978523 6.0965215,2.5068346 7.2990746,1.9314073 7.4702578,-0.41574481 8.8033038,-0.40028643 10.172467,-0.38440923 10.36723,1.9734695 11.5994,2.5706432 c 1.199666,0.5814208 3.141475,-0.7481682 3.96053,0.3036873 0.841245,1.0803541 -0.880786,2.702739 -0.579429,4.0384201 0.293406,1.3004472 2.543619,1.989629 2.231917,3.2858124 z"
       inkscape:transform-center-x="0.026376632"
       inkscape:transform-center-y="1.4176087"
       transform="matrix(0.99840673,-0.55622143,0.58038023,0.9994809,-8.8312489,8.1709163)" />
    <path
       sodipodi:type="star"
       style="fill:#800080;fill-rule:evenodd;stroke-width:0.264583"
       id="path10-8"
       sodipodi:sides="7"
       sodipodi:cx="8.7817106"
       sodipodi:cy="8.252161"
       sodipodi:r1="8.6524744"
       sodipodi:r2="6.3418465"
       sodipodi:arg1="0.22689508"
       sodipodi:arg2="0.6847934"
       inkscape:flatsided="false"
       inkscape:rounded="0.33562015"
       inkscape:randomized="0"
       inkscape:transform-center-x="0.020225542"
       inkscape:transform-center-y="1.1269718"
       transform="matrix(0.76557745,-0.44218535,0.44503507,0.7945681,-5.8111876,9.3155669)"
       d="m 17.212418,10.198563 c -0.320146,1.331303 -2.662247,0.996505 -3.518632,2.064898 -0.833794,1.040211 0.03037,3.229195 -1.177374,3.793655 C 11.27595,16.636868 10.07743,14.596998 8.7081787,14.593581 7.3750473,14.590255 6.2024254,16.630692 5.0080996,16.038378 3.7814152,15.430015 4.6289853,13.221136 3.7779423,12.148482 2.949349,11.104124 0.62295299,11.459523 0.34139316,10.15646 0.05220484,8.8180916 2.3076278,8.1035347 2.6156455,6.769374 2.915538,5.4704071 1.1871915,3.8731452 2.0304179,2.8405661 2.8964904,1.7800105 4.8613868,3.0978523 6.0965215,2.5068346 7.2990746,1.9314073 7.4702578,-0.41574481 8.8033038,-0.40028643 10.172467,-0.38440923 10.36723,1.9734695 11.5994,2.5706432 c 1.199666,0.5814208 3.141475,-0.7481682 3.96053,0.3036873 0.841245,1.0803541 -0.880786,2.702739 -0.579429,4.0384201 0.293406,1.3004472 2.543619,1.989629 2.231917,3.2858124 z" />
  </g>
</svg>
