{
    "asset" : {
        "generator" : "Khronos glTF Blender I/O v1.2.75",
        "version" : "2.0"
    },
    "scene" : 0,
    "scenes" : [
        {
            "name" : "Scene",
            "nodes" : [
                0
            ]
        }
    ],
    "nodes" : [
        {
            "mesh" : 0,
            "name" : "Tree"
        }
    ],
    "meshes" : [
        {
            "name" : "Icosphere.007",
            "primitives" : [
                {
                    "attributes" : {
                        "POSITION" : 0,
                        "NORMAL" : 1,
                        "TEXCOORD_0" : 2,
                        "COLOR_0" : 3
                    },
                    "indices" : 4
                }
            ]
        }
    ],
    "accessors" : [
        {
            "bufferView" : 0,
            "componentType" : 5126,
            "count" : 2544,
            "max" : [
                2.5774176120758057,
                10.084449768066406,
                2.9477739334106445
            ],
            "min" : [
                -2.5997958183288574,
                -0.0961216539144516,
                -3.127908706665039
            ],
            "type" : "VEC3"
        },
        {
            "bufferView" : 1,
            "componentType" : 5126,
            "count" : 2544,
            "type" : "VEC3"
        },
        {
            "bufferView" : 2,
            "componentType" : 5126,
            "count" : 2544,
            "type" : "VEC2"
        },
        {
            "bufferView" : 3,
            "componentType" : 5126,
            "count" : 2544,
            "type" : "VEC4"
        },
        {
            "bufferView" : 4,
            "componentType" : 5123,
            "count" : 2544,
            "type" : "SCALAR"
        }
    ],
    "bufferViews" : [
        {
            "buffer" : 0,
            "byteLength" : 30528,
            "byteOffset" : 0
        },
        {
            "buffer" : 0,
            "byteLength" : 30528,
            "byteOffset" : 30528
        },
        {
            "buffer" : 0,
            "byteLength" : 20352,
            "byteOffset" : 61056
        },
        {
            "buffer" : 0,
            "byteLength" : 40704,
            "byteOffset" : 81408
        },
        {
            "buffer" : 0,
            "byteLength" : 5088,
            "byteOffset" : 122112
        }
    ],
    "buffers" : [
        {
            "byteLength" : 127200,
            "uri" : "data:application/octet-stream;base64,"
        }
    ]
}
